<svg xmlns="http://www.w3.org/2000/svg" viewBox="0 0 20 20"><path fillRule="evenodd" clipRule="evenodd" d="M14 9.5C14 11.9853 11.9853 14 9.5 14C7.01472 14 5 11.9853 5 9.5C5 7.01472 7.01472 5 9.5 5C11.9853 5 14 7.01472 14 9.5ZM14.7489 13.3347C15.5356 12.2597 16 10.9341 16 9.5C16 5.91015 13.0899 3 9.5 3C5.91015 3 3 5.91015 3 9.5C3 13.0899 5.91015 16 9.5 16C10.9341 16 12.2597 15.5356 13.3347 14.7489L15.2928 16.707C15.6833 17.0976 16.3165 17.0976 16.707 16.707C17.0976 16.3165 17.0976 15.6833 16.707 15.2928L14.7489 13.3347Z"/></svg>